<?xml version="1.0" encoding="UTF-8"?>
<svg width="519px" height="356px" viewBox="0 0 519 356" version="1.1" xmlns="http://www.w3.org/2000/svg">
    <g id="Page-1" stroke="none" stroke-width="1" fill="none" fill-rule="evenodd">
        <g id="logo" fill="currentColor">
            <path d="M8.406,211.249 C13.531,199.083 25.644,186.222 44.637,172.66 C61.144,160.814 71.838,152.355 76.712,147.259 C84.195,139.289 87.902,130.547 87.902,121.074 C87.902,113.37 85.774,106.955 81.487,101.844 C77.208,96.741 71.106,94.171 63.143,94.171 C52.212,94.171 44.813,98.213 40.9,106.39 C38.604,111.081 37.269,118.526 36.857,128.763 L2.036,128.763 C2.593,113.232 5.4,100.716 10.458,91.143 C20.023,72.965 37.04,63.866 61.434,63.866 C80.755,63.866 96.11,69.205 107.506,79.899 C118.931,90.594 124.653,104.712 124.653,122.332 C124.653,135.841 120.587,147.816 112.548,158.327 C107.246,165.269 98.565,173.027 86.468,181.585 L72.074,191.737 C63.112,198.159 56.933,202.737 53.638,205.589 C50.313,208.457 47.536,211.745 45.255,215.52 L124.866,215.52 L124.866,247.061 L0,247.061 C0.343,234.018 3.15,222.073 8.406,211.249" id="Fill-1"></path>
            <path d="M151.655,211.249 C156.75,199.083 168.863,186.222 187.856,172.66 C204.408,160.814 215.079,152.355 219.953,147.259 C227.413,139.289 231.12,130.547 231.12,121.074 C231.12,113.37 228.993,106.955 224.744,101.844 C220.427,96.741 214.324,94.171 206.377,94.171 C195.469,94.171 188.07,98.213 184.103,106.39 C181.83,111.081 180.518,118.526 180.091,128.763 L145.255,128.763 C145.812,113.232 148.642,100.716 153.676,91.143 C163.234,72.965 180.259,63.866 204.668,63.866 C223.966,63.866 239.328,69.205 250.724,79.899 C262.158,90.594 267.879,104.712 267.879,122.332 C267.879,135.841 263.852,147.816 255.766,158.327 C250.495,165.269 241.799,173.027 229.679,181.585 L215.316,191.737 C206.346,198.159 200.197,202.737 196.872,205.589 C193.577,208.457 190.785,211.745 188.527,215.52 L268.116,215.52 L268.116,247.061 L143.226,247.061 C143.569,234.018 146.376,222.073 151.655,211.249" id="Fill-4"></path>
            <path d="M340.373,121.333 L340.373,96.947 C351.677,96.436 359.572,95.673 364.103,94.659 C371.273,93.08 377.131,89.877 381.662,85.124 C384.728,81.86 387.085,77.519 388.71,72.043 C389.617,68.786 390.053,66.322 390.053,64.758 L419.961,64.758 L419.961,247.061 L383.256,247.061 L383.256,121.333 L340.373,121.333" id="Fill-5"></path>
            <path d="M438.489,121.333 L438.489,96.947 C449.785,96.436 457.695,95.673 462.211,94.659 C469.381,93.08 475.269,89.877 479.755,85.124 C482.836,81.86 485.178,77.519 486.788,72.043 C487.71,68.786 488.176,66.322 488.176,64.758 L518.099,64.758 L518.099,247.061 L481.364,247.061 L481.364,121.333 L438.489,121.333" id="Fill-6"></path>
            <polygon id="Fill-7" points="303.149 356 306.803 356 306.803 0.67 303.149 0.67"></polygon>
        </g>
    </g>
</svg>